<?xml version="1.0" encoding="UTF-8"?>
<!DOCTYPE svg PUBLIC "-//W3C//DTD SVG 1.1//EN" "http://www.w3.org/Graphics/SVG/1.1/DTD/svg11.dtd">
<svg xmlns="http://www.w3.org/2000/svg" version="1.1" width="200px" height="75px" style="shape-rendering:geometricPrecision; text-rendering:geometricPrecision; image-rendering:optimizeQuality; fill-rule:evenodd; clip-rule:evenodd" xmlns:xlink="http://www.w3.org/1999/xlink">
<g><path style="opacity:0.983" fill="#96bafe" d="M 57.5,18.5 C 40.5,18.5 23.5,18.5 6.5,18.5C 7.14342,15.0125 9.14342,12.5125 12.5,11C 25.1667,10.3333 37.8333,10.3333 50.5,11C 54.321,12.1617 56.6543,14.6617 57.5,18.5 Z"/></g>
<g><path style="opacity:0.872" fill="#fefffe" d="M 174.5,19.5 C 180.164,18.8877 184.998,20.5543 189,24.5C 189.813,26.4357 190.313,28.4357 190.5,30.5C 185.259,31.2292 180.759,29.8958 177,26.5C 174.048,28.1929 173.882,30.0262 176.5,32C 181.767,33.1934 186.267,35.6934 190,39.5C 191.686,48.6543 187.853,53.6543 178.5,54.5C 170.664,54.6477 166.331,50.981 165.5,43.5C 170.417,42.8426 174.583,44.1759 178,47.5C 180.998,46.7158 181.831,45.0491 180.5,42.5C 174.947,41.0461 170.114,38.3795 166,34.5C 163.735,26.3425 166.569,21.3425 174.5,19.5 Z"/></g>
<g><path style="opacity:0.967" fill="#fefffe" d="M 69.5,20.5 C 72.1667,20.5 74.8333,20.5 77.5,20.5C 77.5,29.1667 77.5,37.8333 77.5,46.5C 81.1667,46.5 84.8333,46.5 88.5,46.5C 88.5,48.8333 88.5,51.1667 88.5,53.5C 82.1667,53.5 75.8333,53.5 69.5,53.5C 69.5,42.5 69.5,31.5 69.5,20.5 Z"/></g>
<g><path style="opacity:0.943" fill="#fefffe" d="M 96.5,20.5 C 103.167,20.5 109.833,20.5 116.5,20.5C 116.5,22.8333 116.5,25.1667 116.5,27.5C 112.5,27.5 108.5,27.5 104.5,27.5C 104.5,29.5 104.5,31.5 104.5,33.5C 108.167,33.5 111.833,33.5 115.5,33.5C 115.5,35.8333 115.5,38.1667 115.5,40.5C 111.833,40.5 108.167,40.5 104.5,40.5C 104.261,42.4672 104.594,44.3005 105.5,46C 109.152,46.4986 112.818,46.6653 116.5,46.5C 116.5,48.8333 116.5,51.1667 116.5,53.5C 109.815,54.6232 103.148,54.6232 96.5,53.5C 96.5,42.5 96.5,31.5 96.5,20.5 Z"/></g>
<g><path style="opacity:0.926" fill="#fefffe" d="M 126.5,20.5 C 129.572,20.1826 132.572,20.5159 135.5,21.5C 139.333,27.1667 143.167,32.8333 147,38.5C 147.499,32.5092 147.666,26.5092 147.5,20.5C 150.5,20.5 153.5,20.5 156.5,20.5C 156.5,31.5 156.5,42.5 156.5,53.5C 153.102,53.8204 149.768,53.487 146.5,52.5C 142.667,46.8333 138.833,41.1667 135,35.5C 134.501,41.4908 134.334,47.4908 134.5,53.5C 131.833,53.5 129.167,53.5 126.5,53.5C 126.5,42.5 126.5,31.5 126.5,20.5 Z"/></g>
<g><path style="opacity:0.989" fill="#83b1fd" d="M 6.5,18.5 C 23.5,18.5 40.5,18.5 57.5,18.5C 58.1495,20.4352 58.4828,22.4352 58.5,24.5C 40.8333,24.5 23.1667,24.5 5.5,24.5C 5.20528,22.2646 5.53862,20.2646 6.5,18.5 Z"/></g>
<g><path style="opacity:0.004" fill="#fefffe" d="M 64.5,23.5 C 65.8333,24.1667 65.8333,24.1667 64.5,23.5 Z"/></g>
<g><path style="opacity:0.96" fill="#6ca1f4" d="M 5.5,24.5 C 23.1667,24.5 40.8333,24.5 58.5,24.5C 58.5,28.1667 58.5,31.8333 58.5,35.5C 56.5328,35.7394 54.6995,35.4061 53,34.5C 52.0656,35.8584 51.2323,37.1917 50.5,38.5C 50.7947,36.2646 50.4614,34.2646 49.5,32.5C 49.5,31.8333 49.5,31.1667 49.5,30.5C 49.7778,28.6536 49.1112,27.3202 47.5,26.5C 45.4807,28.1897 43.4807,29.8564 41.5,31.5C 40.8333,31.5 40.1667,31.5 39.5,31.5C 39.5,30.8333 39.1667,30.5 38.5,30.5C 38.4257,28.5891 37.4257,27.4224 35.5,27C 28.8333,26.3333 22.1667,26.3333 15.5,27C 14.6634,28.0113 14.33,29.1779 14.5,30.5C 14.5,31.1667 14.5,31.8333 14.5,32.5C 14.5,35.5 14.5,38.5 14.5,41.5C 13.6805,38.6946 13.1805,35.6946 13,32.5C 12.5026,35.146 12.3359,37.8127 12.5,40.5C 10.1944,40.9926 7.86105,41.3259 5.5,41.5C 5.5,35.8333 5.5,30.1667 5.5,24.5 Z"/></g>
<g><path style="opacity:1" fill="#f4f6fb" d="M 38.5,30.5 C 30.5985,31.8129 22.5985,31.8129 14.5,30.5C 14.33,29.1779 14.6634,28.0113 15.5,27C 22.1667,26.3333 28.8333,26.3333 35.5,27C 37.4257,27.4224 38.4257,28.5891 38.5,30.5 Z"/></g>
<g><path style="opacity:1" fill="#e9edfa" d="M 49.5,30.5 C 48.5318,32.6074 48.1984,34.9407 48.5,37.5C 46.4727,37.6621 44.4727,37.4955 42.5,37C 41.6198,35.6439 41.2865,34.1439 41.5,32.5C 41.5,32.1667 41.5,31.8333 41.5,31.5C 43.4807,29.8564 45.4807,28.1897 47.5,26.5C 49.1112,27.3202 49.7778,28.6536 49.5,30.5 Z"/></g>
<g><path style="opacity:1" fill="#e4ebfa" d="M 14.5,30.5 C 22.5985,31.8129 30.5985,31.8129 38.5,30.5C 39.1667,30.5 39.5,30.8333 39.5,31.5C 39.5,32.8333 39.5,34.1667 39.5,35.5C 39.1667,35.5 38.8333,35.5 38.5,35.5C 31.0681,37.393 23.4014,38.0597 15.5,37.5C 15.7845,35.5853 15.4511,33.9187 14.5,32.5C 14.5,31.8333 14.5,31.1667 14.5,30.5 Z"/></g>
<g><path style="opacity:1" fill="#c4cfee" d="M 49.5,30.5 C 49.5,31.1667 49.5,31.8333 49.5,32.5C 49.5,36.8333 49.5,41.1667 49.5,45.5C 48.1266,45.6567 46.7932,45.49 45.5,45C 43.9625,43.2927 42.2959,41.7927 40.5,40.5C 40.1936,37.6146 40.5269,34.9479 41.5,32.5C 41.2865,34.1439 41.6198,35.6439 42.5,37C 44.4727,37.4955 46.4727,37.6621 48.5,37.5C 48.1984,34.9407 48.5318,32.6074 49.5,30.5 Z"/></g>
<g><path style="opacity:0.763" fill="#4892f8" d="M 58.5,35.5 C 58.5,39.1667 58.5,42.8333 58.5,46.5C 55.9912,44.8428 53.8245,45.1762 52,47.5C 50.8512,44.6074 50.3512,41.6074 50.5,38.5C 51.2323,37.1917 52.0656,35.8584 53,34.5C 54.6995,35.4061 56.5328,35.7394 58.5,35.5 Z"/></g>
<g><path style="opacity:1" fill="#2d72d6" d="M 39.5,31.5 C 40.1667,31.5 40.8333,31.5 41.5,31.5C 41.5,31.8333 41.5,32.1667 41.5,32.5C 40.5269,34.9479 40.1936,37.6146 40.5,40.5C 42.0621,44.7334 45.0621,47.0667 49.5,47.5C 47.3165,49.8561 44.6499,50.1895 41.5,48.5C 40.5,49 39.5,49.5 38.5,50C 30.8333,50.6667 23.1667,50.6667 15.5,50C 14.6198,48.6439 14.2865,47.1439 14.5,45.5C 15.2891,45.7828 15.9558,46.2828 16.5,47C 20.3333,47.1667 24.1667,47.3333 28,47.5C 32.229,47.4898 36.0623,46.8232 39.5,45.5C 39.5,42.1667 39.5,38.8333 39.5,35.5C 39.5,34.1667 39.5,32.8333 39.5,31.5 Z"/></g>
<g><path style="opacity:1" fill="#3084f4" d="M 14.5,41.5 C 14.5,42.1667 14.5,42.8333 14.5,43.5C 14.5,44.1667 14.5,44.8333 14.5,45.5C 14.2865,47.1439 14.6198,48.6439 15.5,50C 23.1667,50.6667 30.8333,50.6667 38.5,50C 39.5,49.5 40.5,49 41.5,48.5C 44.6499,50.1895 47.3165,49.8561 49.5,47.5C 49.5,46.8333 49.5,46.1667 49.5,45.5C 49.5,41.1667 49.5,36.8333 49.5,32.5C 50.4614,34.2646 50.7947,36.2646 50.5,38.5C 50.3512,41.6074 50.8512,44.6074 52,47.5C 53.8245,45.1762 55.9912,44.8428 58.5,46.5C 58.678,50.1224 58.0114,53.4557 56.5,56.5C 47.3962,54.5535 37.8962,53.5535 28,53.5C 20.8416,54.0635 13.6749,54.3969 6.5,54.5C 5.51511,50.3656 5.18178,46.0323 5.5,41.5C 7.86105,41.3259 10.1944,40.9926 12.5,40.5C 12.3359,37.8127 12.5026,35.146 13,32.5C 13.1805,35.6946 13.6805,38.6946 14.5,41.5 Z"/></g>
<g><path style="opacity:1" fill="#17367e" d="M 14.5,43.5 C 14.8333,43.5 15.1667,43.5 15.5,43.5C 15.9528,44.4584 16.6195,45.2917 17.5,46C 24.9131,46.7964 32.2465,46.6297 39.5,45.5C 36.0623,46.8232 32.229,47.4898 28,47.5C 24.1667,47.3333 20.3333,47.1667 16.5,47C 15.9558,46.2828 15.2891,45.7828 14.5,45.5C 14.5,44.8333 14.5,44.1667 14.5,43.5 Z"/></g>
<g><path style="opacity:1" fill="#273e81" d="M 40.5,40.5 C 42.2959,41.7927 43.9625,43.2927 45.5,45C 46.7932,45.49 48.1266,45.6567 49.5,45.5C 49.5,46.1667 49.5,46.8333 49.5,47.5C 45.0621,47.0667 42.0621,44.7334 40.5,40.5 Z"/></g>
<g><path style="opacity:1" fill="#b2c0e9" d="M 38.5,35.5 C 38.8333,35.5 39.1667,35.5 39.5,35.5C 39.5,38.8333 39.5,42.1667 39.5,45.5C 32.2465,46.6297 24.9131,46.7964 17.5,46C 16.6195,45.2917 15.9528,44.4584 15.5,43.5C 22.175,43.6663 28.8417,43.4996 35.5,43C 37.9529,41.1521 38.9529,38.6521 38.5,35.5 Z"/></g>
<g><path style="opacity:1" fill="#d5dff8" d="M 14.5,32.5 C 15.4511,33.9187 15.7845,35.5853 15.5,37.5C 23.4014,38.0597 31.0681,37.393 38.5,35.5C 38.9529,38.6521 37.9529,41.1521 35.5,43C 28.8417,43.4996 22.175,43.6663 15.5,43.5C 15.1667,43.5 14.8333,43.5 14.5,43.5C 14.5,42.8333 14.5,42.1667 14.5,41.5C 14.5,38.5 14.5,35.5 14.5,32.5 Z"/></g>
<g><path style="opacity:0.982" fill="#1b7df9" d="M 56.5,56.5 C 55.7457,59.091 54.079,60.9243 51.5,62C 38.5,64 25.5,64 12.5,62C 9.14342,60.4875 7.14342,57.9875 6.5,54.5C 13.6749,54.3969 20.8416,54.0635 28,53.5C 37.8962,53.5535 47.3962,54.5535 56.5,56.5 Z"/></g>
</svg>
